<?xml version="1.0" encoding="UTF-8"?>
<svg width="253px" height="43px" viewBox="0 0 253 43" version="1.1" xmlns="http://www.w3.org/2000/svg" xmlns:xlink="http://www.w3.org/1999/xlink">
    <!-- Generator: Sketch 51.1 (57501) - http://www.bohemiancoding.com/sketch -->
    <title>Logo</title>
    <desc>Created with Sketch.</desc>
    <defs></defs>
    <g id="Site-Final" stroke="none" stroke-width="1" fill="none" fill-rule="evenodd">
        <g id="Team" transform="translate(-30.000000, -40.000000)" fill="#6D3AEC" fill-rule="nonzero">
            <g id="Navigation" transform="translate(30.000000, 40.000000)">
                <g id="Logo">
                    <g id="Group" transform="translate(69.000000, 12.000000)">
                        <path d="M27.279764,0.171111111 C21.9671032,0.171111111 17.5217935,4.27722222 17.5217935,9.90888889 C17.5217935,15.5127778 21.9665605,19.5916667 27.279764,19.5916667 C32.5647434,19.5916667 37.0371917,15.5411111 37.0371917,9.90888889 C37.0371917,4.27722222 32.5647434,0.171111111 27.279764,0.171111111 Z M27.279764,16.7061111 C23.5661121,16.7061111 20.720354,13.7094444 20.720354,9.90888889 C20.720354,6.10833333 23.5661121,3.08388889 27.279764,3.08388889 C31.0205546,3.08388889 33.8120354,6.10833333 33.8120354,9.90888889 C33.8120354,13.71 31.0200118,16.7061111 27.279764,16.7061111 Z" id="Shape"></path>
                        <path d="M51.8912566,16.5672222 L44.0308201,16.5672222 L44.0308201,1.66944444 C44.0308201,0.836666667 43.3800354,0.171111111 42.5132271,0.171111111 C41.6730147,0.171111111 40.9950914,0.836666667 40.9950914,1.66944444 L40.9950914,17.8155556 C40.9950914,18.6477778 41.6730147,19.3133333 42.5132271,19.3133333 L51.8912566,19.3133333 C52.6234572,19.3133333 53.1922832,18.7033333 53.1922832,17.9266667 C53.1922832,17.2055556 52.6229145,16.5672222 51.8912566,16.5672222 Z" id="Shape"></path>
                        <path d="M68.2504307,0.171111111 C67.4096755,0.171111111 66.7328378,0.836666667 66.7328378,1.66944444 L66.7328378,4.595 C66.7328378,6.20388889 66.3534395,7.48 65.5941003,8.36833333 C64.7267493,9.39444444 63.4534041,9.86666667 61.8533097,9.86666667 C60.2814395,9.86666667 59.0070088,9.39444444 58.1402006,8.36833333 C57.3808614,7.48055556 57.0014631,6.20444444 57.0014631,4.595 L57.0014631,1.66944444 C57.0014631,0.836666667 56.3235398,0.171111111 55.4838702,0.171111111 C54.6436578,0.171111111 53.9651917,0.836666667 53.9651917,1.66944444 L53.9651917,5.03888889 C53.9651917,7.20277778 54.5345605,9.03388889 55.6732979,10.3377778 C56.7631858,11.61 58.3681652,12.4055556 60.3487434,12.6722222 L60.3487434,18.0933333 C60.3487434,18.9255556 61.0261239,19.5916667 61.8663363,19.5916667 C62.6788673,19.5916667 63.3839292,18.9255556 63.3839292,18.0933333 L63.3839292,12.67 C65.3721062,12.4022222 66.9727434,11.6066667 68.0599174,10.3377778 C69.1991976,9.03388889 69.7674808,7.20277778 69.7674808,5.03888889 L69.7674808,1.66944444 C69.7685664,0.836666667 69.0906431,0.171111111 68.2504307,0.171111111 Z" id="Shape"></path>
                        <path d="M85.2734159,9.65944444 C83.619587,8.60555556 81.6954572,8.21666667 79.9607552,7.60666667 C78.4708437,7.07944444 77.440118,6.41388889 77.440118,5.19277778 C77.440118,3.66666667 78.6602714,2.97333333 80.8823835,2.97333333 C83.1859115,2.97333333 84.1080826,4.05555556 85.3814277,4.05555556 C86.1950442,4.05555556 86.8181475,3.41722222 86.8181475,2.61277778 C86.8181475,0.532222222 82.2105487,0.171666667 81.0452153,0.171666667 C76.6265015,0.171666667 74.2415575,2.25222222 74.2415575,5.30388889 C74.2415575,7.46777778 75.3249322,8.77222222 76.7893333,9.60444444 C78.4703009,10.5477778 80.3667493,10.9083333 81.884885,11.5183333 C83.2407316,12.0733333 84.2160944,12.795 84.2160944,14.0705556 C84.2160944,15.5688889 83.1859115,16.8455556 80.6381357,16.8455556 C77.8466549,16.8455556 76.8436106,15.2633333 75.624,15.2633333 C74.8380649,15.2633333 74.1601416,15.9016667 74.1601416,16.7616667 C74.1601416,18.565 78.0371681,19.5916667 80.692413,19.5916667 C84.6220885,19.5916667 87.5232094,17.4827778 87.5232094,13.8211111 C87.5232094,11.7683333 86.5478466,10.4638889 85.2734159,9.65944444 Z" id="Shape"></path>
                        <path d="M114.614631,0.171111111 C113.773876,0.171111111 113.095953,0.836666667 113.095953,1.66944444 L113.095953,12.4333333 C113.095953,13.9038889 112.71764,14.9027778 112.12059,15.5688889 C111.335198,16.4011111 110.250737,16.7066667 109.139139,16.7066667 C107.999858,16.7066667 107.078773,16.3461111 106.45567,15.7072222 C105.670277,14.9033333 105.20892,13.5988889 105.20892,11.9344444 L105.20892,1.66944444 C105.20892,0.836666667 104.53154,0.171111111 103.690785,0.171111111 C102.851115,0.171111111 102.172649,0.836666667 102.172649,1.66944444 L102.172649,11.9344444 C102.172649,13.5988889 101.685239,14.9033333 100.898761,15.7072222 C100.275658,16.3455556 99.3811681,16.7066667 98.215292,16.7066667 C97.1313746,16.7066667 96.0197758,16.4011111 95.2615221,15.5688889 C94.6389617,14.9033333 94.2584779,13.9044444 94.2584779,12.4333333 L94.2584779,1.66944444 C94.2584779,0.836666667 93.5805546,0.171111111 92.7403422,0.171111111 C91.9001298,0.171111111 91.2227493,0.836666667 91.2227493,1.66944444 L91.2227493,12.4616667 C91.2227493,14.8194444 91.9001298,16.5122222 92.98459,17.6216667 C94.3122124,19.0366667 96.2640236,19.5633333 98.1886962,19.5633333 C99.2454749,19.5633333 100.384212,19.3422222 101.387257,18.8144444 C102.281746,18.2872222 103.09482,17.5105556 103.690785,16.3455556 C104.260153,17.5111111 105.073227,18.2872222 105.967174,18.8144444 C106.970218,19.3416667 108.108956,19.5633333 109.166277,19.5633333 C111.118088,19.5633333 113.042218,19.0366667 114.370383,17.6216667 C115.454844,16.5122222 116.132224,14.8194444 116.132224,12.4616667 L116.132224,1.66944444 C116.131681,0.836666667 115.454301,0.171111111 114.614631,0.171111111 Z" id="Shape"></path>
                        <path d="M181.922808,2.11333333 C180.595729,0.698333333 178.643375,0.171111111 176.718702,0.171111111 C175.661923,0.171111111 174.523186,0.392777778 173.520142,0.92 C172.626737,1.44722222 171.812578,2.22388889 171.216614,3.38888889 C170.647245,2.22388889 169.834171,1.44666667 168.939681,0.92 C167.936637,0.392777778 166.798985,0.171111111 165.741121,0.171111111 C163.789853,0.171111111 161.86518,0.697777778 160.537015,2.11333333 C159.452555,3.22277778 158.775174,4.915 158.775174,7.27333333 L158.775174,18.0655556 C158.775174,18.8983333 159.452555,19.5633333 160.29331,19.5633333 C161.133522,19.5633333 161.810903,18.8983333 161.810903,18.0655556 L161.810903,7.30111111 C161.810903,5.83111111 162.190301,4.83222222 162.786808,4.16611111 C163.572743,3.33388889 164.657204,3.02833333 165.76826,3.02833333 C166.90754,3.02833333 167.828625,3.38888889 168.451729,4.02722222 C169.237121,4.83166667 169.698478,6.13555556 169.698478,7.80055556 L169.698478,18.0655556 C169.698478,18.8983333 170.376944,19.5633333 171.216614,19.5633333 C172.056283,19.5633333 172.734749,18.8983333 172.734749,18.0655556 L172.734749,7.80055556 C172.734749,6.13611111 173.222159,4.83222222 174.008637,4.02722222 C174.632283,3.38888889 175.52623,3.02833333 176.691563,3.02833333 C177.776566,3.02833333 178.88708,3.33388889 179.646419,4.16611111 C180.268979,4.83166667 180.649463,5.83055556 180.649463,7.30111111 L180.649463,18.0655556 C180.649463,18.8983333 181.326844,19.5633333 182.167056,19.5633333 C183.007268,19.5633333 183.685192,18.8983333 183.685192,18.0655556 L183.685192,7.27333333 C183.685192,4.915 183.007268,3.22277778 181.922808,2.11333333 Z" id="Shape"></path>
                        <path d="M154.032968,6.85388889 C154.034053,4.66333333 153.193298,2.94166667 151.810855,1.80444444 C150.510372,0.75 149.046513,0.445 147.475186,0.445 L141.187162,0.443333333 C140.34695,0.443333333 139.668484,1.10944444 139.668484,1.97 L139.665227,18.1155556 C139.665227,18.9483333 140.342608,19.6138889 141.183363,19.6138889 C141.996437,19.6138889 142.700956,18.9483333 142.700956,18.1166667 L142.704212,3.16277778 L147.068106,3.16388889 C148.043469,3.16388889 148.857086,3.35944444 149.588201,3.85833333 C150.428956,4.44111111 150.943504,5.44 150.942962,6.85388889 C150.942962,8.26888889 150.373593,9.29611111 149.479103,9.90611111 C148.903221,10.2988889 148.110773,10.5233333 147.213569,10.5233333 C145.445215,10.5233333 144.454112,11.6544444 144.454112,13.26 C144.454112,14.475 145.104897,15.4755556 146.708791,16.4244444 L151.75495,19.4055556 C151.994313,19.5472222 152.254301,19.6144444 152.512661,19.6144444 C153.037522,19.6144444 153.548271,19.3361111 153.829428,18.8372222 C154.248448,18.0938889 153.998773,17.1427778 153.273628,16.7138889 L147.429593,13.26 C148.914619,13.25 150.371965,12.9933333 151.620342,12.0144444 C153.110254,10.9044444 154.032425,9.04611111 154.032968,6.85388889 Z" id="Shape"></path>
                        <path d="M132.770383,2.05722222 C131.577912,0.92 129.924083,0.171111111 127.782844,0.171111111 C125.642147,0.171111111 123.988319,0.92 122.795847,2.05722222 C121.088283,3.61111111 120.301263,5.94166667 120.301263,8.16111111 L120.301263,18.0927778 C120.301263,18.925 120.952047,19.5911111 121.819398,19.5911111 C122.633015,19.5911111 123.337534,18.925 123.337534,18.0927778 L123.337534,13.6733333 L132.228153,13.6733333 L132.228153,18.0927778 C132.228153,18.925 132.904991,19.5911111 133.745746,19.5911111 C134.586501,19.5911111 135.263882,18.925 135.263882,18.0927778 L135.263882,8.16111111 C135.263339,5.94166667 134.505086,3.61111111 132.770383,2.05722222 Z M132.228153,10.5661111 L123.337534,10.5661111 L123.337534,8.3 C123.337534,6.66333333 123.798348,5.30388889 124.638018,4.36055556 C125.423953,3.52833333 126.50787,3.05611111 127.782301,3.05611111 C129.056732,3.05611111 130.167788,3.52833333 130.954265,4.36055556 C131.767339,5.30388889 132.228153,6.66333333 132.228153,8.3 L132.228153,10.5661111 Z" id="Shape"></path>
                        <path d="M8.83634218,0.482222222 L1.81014749,0.482222222 C0.972106195,0.482222222 0.292554572,1.17777778 0.292554572,2.03611111 L0.292554572,18.02 C0.292554572,18.8783333 0.972106195,19.5738889 1.81014749,19.5738889 C2.64873156,19.5738889 3.32882596,18.8783333 3.32882596,18.02 L3.32882596,13.6733333 L8.83634218,13.6733333 C12.3893333,13.6733333 15.2801416,10.7144444 15.2801416,7.07777778 C15.2801416,3.44055556 12.3898761,0.482222222 8.83634218,0.482222222 Z M8.83634218,10.5661111 L3.32882596,10.5661111 L3.32882596,3.59 L8.83634218,3.59 C10.7154218,3.59 12.2438702,5.15444444 12.2438702,7.07777778 C12.2438702,9.00111111 10.7154218,10.5661111 8.83634218,10.5661111 Z" id="Shape"></path>
                    </g>
                    <g id="Group">
                        <path d="M4.87042683,11.3634304 L27.319939,11.3634304 C30.6795732,11.3634304 33.4130488,14.0746076 33.4130488,17.4068354 C33.4130488,20.7390633 30.6795732,23.4502405 27.319939,23.4502405 L15.1726829,23.4502405 C14.2161585,23.4502405 13.4379878,24.2220633 13.4379878,25.1707848 C13.4379878,26.1195063 14.2161585,26.8913291 15.1726829,26.8913291 L27.3193902,26.8913291 C32.5920732,26.8913291 36.8818902,22.6370506 36.8818902,17.4068354 C36.8818902,12.1766203 32.5920732,7.92234177 27.3193902,7.92234177 L4.87042683,7.92234177 C3.91390244,7.92234177 3.13573171,8.69416456 3.13573171,9.64288608 C3.13573171,10.5916076 3.91390244,11.3634304 4.87042683,11.3634304 Z" id="Shape"></path>
                        <path d="M27.319939,0 L18.6135366,0 C17.6570122,0 16.8788415,0.771822785 16.8788415,1.7205443 C16.8788415,2.66926582 17.6570122,3.44108861 18.6135366,3.44108861 L27.319939,3.44108861 C35.0840854,3.44108861 41.4005488,9.70602532 41.4005488,17.4073797 C41.4005488,25.1076456 35.0840854,31.3731266 27.319939,31.3731266 L5.20243902,31.3731266 C4.24591463,31.3731266 3.4677439,32.1449494 3.4677439,33.0936709 C3.4677439,34.0418481 4.24536585,34.8136709 5.20243902,34.8136709 L27.3193902,34.8136709 C36.9965854,34.8136709 44.8693902,27.0050886 44.8693902,17.4073797 C44.8693902,7.80967089 36.9971341,0 27.319939,0 Z" id="Shape"></path>
                        <path d="M17.262439,17.4068354 C17.262439,16.4581139 16.4842683,15.6862911 15.5277439,15.6862911 L11.299939,15.6862911 C10.3434146,15.6862911 9.5652439,16.4581139 9.5652439,17.4068354 C9.5652439,18.3599114 10.332439,19.1273797 10.967378,19.1273797 L15.1946341,19.1273797 C16.412378,19.1273797 17.262439,18.4197848 17.262439,17.4068354 Z" id="Shape"></path>
                        <path d="M11.7713415,39.2954684 L1.73469512,39.2954684 C0.778170732,39.2954684 0,40.0672911 0,41.0160127 C0,41.9647342 0.778170732,42.736557 1.73469512,42.736557 L11.7713415,42.736557 C12.7278659,42.736557 13.5060366,41.9647342 13.5060366,41.0160127 C13.5060366,40.0672911 12.7273171,39.2954684 11.7713415,39.2954684 Z" id="Shape"></path>
                    </g>
                </g>
            </g>
        </g>
    </g>
</svg>